<?xml version="1.0" encoding="UTF-8"?>
<svg id="Layer_1" data-name="Layer 1" xmlns="http://www.w3.org/2000/svg" viewBox="0 0 11.25 11.45">
  <defs>
    <style>
      .cls-1 {
        fill: #666;
      }

      .cls-2 {
        fill: #333;
      }

      .cls-3 {
        fill: #999;
      }
    </style>
  </defs>
  <g>
    <polygon points="9.83 1.47 9.44 6.83 1.75 1.47 9.83 7.99 9.83 1.47"/>
    <polygon class="cls-2" points="9.47 1.47 8.64 4.86 2.19 1.47 9.19 6.25 9.47 1.47"/>
    <polygon class="cls-1" points="9.14 1.47 7.82 2.89 2.74 1.47 8.44 4.39 9.14 1.47"/>
    <polygon class="cls-3" points="8.74 1.47 3.55 1.47 7.69 2.55 8.74 1.47"/>
  </g>
  <g>
    <polygon points="1.75 10.43 2.13 5.06 9.83 10.43 1.75 3.91 1.75 10.43"/>
    <polygon class="cls-2" points="2.11 10.43 2.94 7.03 9.39 10.43 2.39 5.65 2.11 10.43"/>
    <polygon class="cls-1" points="2.44 10.43 3.76 9 8.84 10.43 3.14 7.51 2.44 10.43"/>
    <polygon class="cls-3" points="2.84 10.43 8.03 10.43 3.89 9.35 2.84 10.43"/>
  </g>
</svg>