<?xml version="1.0" encoding="UTF-8"?>
<svg id="Layer_1" data-name="Layer 1" xmlns="http://www.w3.org/2000/svg" viewBox="0 0 51.1 18.39">
  <defs>
    <style>
      .cls-1 {
        fill: #5ba5ff;
      }

      .cls-2 {
        fill: #328fff;
      }

      .cls-3 {
        fill: #add2ff;
      }

      .cls-4 {
        fill: #0e80e5;
      }

      .cls-5 {
        fill: #84bcff;
      }
    </style>
  </defs>
  <path class="cls-4" d="M3.93,13.65V4.65h1.05v8.06h6.68v.94H3.93Z"/>
  <path class="cls-4" d="M16.39,13.84c-.82,0-1.5-.06-2.03-.18s-.95-.34-1.24-.66-.51-.78-.63-1.38-.18-1.38-.18-2.35v-4.62h1.05v4.62c0,.66.02,1.21.07,1.65s.13.79.25,1.05.29.46.52.59.52.21.88.25.8.06,1.32.06h1.99c.52,0,.96-.02,1.32-.06s.65-.12.87-.25.4-.32.52-.59.2-.61.25-1.05.07-.99.07-1.65v-4.62h1.05v4.62c0,.96-.06,1.75-.18,2.35s-.33,1.06-.63,1.38-.71.54-1.24.66-1.21.18-2.03.18h-1.99Z"/>
  <path class="cls-4" d="M33.29,13.65V4.65h1.05v9h-1.05Z"/>
  <path class="cls-4" d="M35.65,9.27v-.23c0-.8.04-1.47.11-2.01s.2-.98.38-1.32.42-.6.73-.78.7-.3,1.17-.37,1.03-.1,1.69-.1h2.21c.75,0,1.39.04,1.91.11s.94.23,1.25.45.55.55.69.99.21,1.01.21,1.73h-1.05c0-.57-.05-1.01-.14-1.32s-.26-.54-.48-.68-.53-.23-.92-.26-.88-.05-1.47-.05h-2.21c-.52,0-.96.02-1.32.05s-.65.11-.88.23-.4.31-.52.57-.2.61-.24,1.05-.07,1.01-.07,1.7v.23c0,.66.02,1.21.07,1.65s.13.79.24,1.05.29.46.52.59.52.21.88.25.8.06,1.32.06h2.21c.59,0,1.08-.01,1.47-.04s.69-.11.92-.24.39-.35.48-.67.14-.75.14-1.31h1.05c0,.72-.07,1.29-.21,1.72s-.37.75-.69.97-.73.36-1.25.43-1.15.11-1.91.11h-2.21c-.82,0-1.5-.06-2.03-.18s-.95-.34-1.24-.66-.51-.78-.63-1.38-.18-1.38-.18-2.35Z"/>
  <g>
    <g>
      <polygon class="cls-2" points="31.9 4.71 31.51 10.08 23.81 4.71 31.9 11.23 31.9 4.71"/>
      <polygon class="cls-1" points="31.53 4.71 30.71 8.11 24.26 4.71 31.26 9.49 31.53 4.71"/>
      <polygon class="cls-5" points="31.2 4.71 29.89 6.14 24.81 4.71 30.5 7.63 31.2 4.71"/>
      <polygon class="cls-3" points="30.81 4.71 25.61 4.71 29.75 5.79 30.81 4.71"/>
    </g>
    <g>
      <polygon class="cls-2" points="23.85 13.67 24.24 8.31 31.94 13.67 23.85 7.15 23.85 13.67"/>
      <polygon class="cls-1" points="24.22 13.67 25.04 10.28 31.49 13.67 24.49 8.89 24.22 13.67"/>
      <polygon class="cls-5" points="24.55 13.67 25.86 12.25 30.94 13.67 25.25 10.75 24.55 13.67"/>
      <polygon class="cls-3" points="24.94 13.67 30.14 13.67 26 12.59 24.94 13.67"/>
    </g>
  </g>
</svg>