<?xml version="1.0" encoding="UTF-8"?>
<svg id="Layer_1" data-name="Layer 1" xmlns="http://www.w3.org/2000/svg" viewBox="0 0 11.25 11.45">
  <defs>
    <style>
      .cls-1 {
        fill: #fff;
      }

      .cls-2 {
        fill: #666;
      }

      .cls-3 {
        fill: #999;
      }

      .cls-4 {
        fill: #ccc;
      }
    </style>
  </defs>
  <g>
    <polygon class="cls-1" points="9.94 1.65 9.56 7.01 1.86 1.65 9.94 8.17 9.94 1.65"/>
    <polygon class="cls-4" points="9.58 1.65 8.75 5.05 2.31 1.65 9.31 6.43 9.58 1.65"/>
    <polygon class="cls-3" points="9.25 1.65 7.93 3.07 2.85 1.65 8.55 4.57 9.25 1.65"/>
    <polygon class="cls-2" points="8.86 1.65 3.66 1.65 7.8 2.73 8.86 1.65"/>
  </g>
  <g>
    <polygon class="cls-1" points="1.86 10.61 2.25 5.25 9.94 10.61 1.86 4.09 1.86 10.61"/>
    <polygon class="cls-4" points="2.23 10.61 3.05 7.21 9.5 10.61 2.5 5.83 2.23 10.61"/>
    <polygon class="cls-3" points="2.55 10.61 3.87 9.19 8.95 10.61 3.25 7.69 2.55 10.61"/>
    <polygon class="cls-2" points="2.95 10.61 8.14 10.61 4 9.53 2.95 10.61"/>
  </g>
</svg>